<svg width="26" height="32" viewBox="0 0 26 32" fill="none" xmlns="http://www.w3.org/2000/svg">
<path d="M22.8571 29.7143H15.7914C16.9782 28.6543 18.0976 27.5212 19.1429 26.3214C23.0643 21.8114 25.1429 17.0571 25.1429 12.5714C25.1429 9.23728 23.8184 6.03969 21.4608 3.68209C19.1032 1.32449 15.9056 0 12.5714 0C9.23728 0 6.03969 1.32449 3.68209 3.68209C1.32449 6.03969 0 9.23728 0 12.5714C0 17.0571 2.07286 21.8114 6 26.3214C7.04528 27.5212 8.16461 28.6543 9.35143 29.7143H2.28571C1.98261 29.7143 1.69192 29.8347 1.47759 30.049C1.26327 30.2633 1.14286 30.554 1.14286 30.8571C1.14286 31.1602 1.26327 31.4509 1.47759 31.6653C1.69192 31.8796 1.98261 32 2.28571 32H22.8571C23.1602 32 23.4509 31.8796 23.6653 31.6653C23.8796 31.4509 24 31.1602 24 30.8571C24 30.554 23.8796 30.2633 23.6653 30.049C23.4509 29.8347 23.1602 29.7143 22.8571 29.7143ZM2.28571 12.5714C2.28571 9.84349 3.36938 7.22728 5.29833 5.29833C7.22728 3.36938 9.84349 2.28571 12.5714 2.28571C15.2994 2.28571 17.9156 3.36938 19.8445 5.29833C21.7735 7.22728 22.8571 9.84349 22.8571 12.5714C22.8571 20.7471 14.9329 27.5714 12.5714 29.4286C10.21 27.5714 2.28571 20.7471 2.28571 12.5714ZM18.2857 12.5714C18.2857 11.4412 17.9506 10.3365 17.3227 9.39674C16.6948 8.45703 15.8023 7.72462 14.7582 7.29212C13.714 6.85962 12.5651 6.74645 11.4566 6.96694C10.3482 7.18743 9.32998 7.73166 8.53082 8.53082C7.73166 9.32998 7.18743 10.3482 6.96694 11.4566C6.74645 12.5651 6.85962 13.714 7.29212 14.7582C7.72462 15.8023 8.45703 16.6948 9.39674 17.3227C10.3365 17.9506 11.4412 18.2857 12.5714 18.2857C14.087 18.2857 15.5404 17.6837 16.612 16.612C17.6837 15.5404 18.2857 14.087 18.2857 12.5714ZM9.14286 12.5714C9.14286 11.8933 9.34394 11.2304 9.72068 10.6666C10.0974 10.1028 10.6329 9.66334 11.2594 9.40384C11.8859 9.14434 12.5752 9.07644 13.2403 9.20874C13.9054 9.34103 14.5163 9.66757 14.9958 10.1471C15.4753 10.6266 15.8018 11.2375 15.9341 11.9025C16.0664 12.5676 15.9985 13.257 15.739 13.8835C15.4795 14.51 15.0401 15.0454 14.4762 15.4222C13.9124 15.7989 13.2495 16 12.5714 16C11.6621 16 10.79 15.6388 10.1471 14.9958C9.50408 14.3528 9.14286 13.4807 9.14286 12.5714Z" fill="#151515"/>
</svg>
